<svg width="20" height="20" viewBox="0 0 20 20" fill="none" xmlns="http://www.w3.org/2000/svg">
<path d="M9.99992 0.833344C9.81758 0.833344 9.64271 0.905776 9.51378 1.03471C9.38485 1.16364 9.31242 1.33851 9.31242 1.52084C9.31242 1.70318 9.38485 1.87805 9.51378 2.00698C9.64271 2.13591 9.81758 2.20834 9.99992 2.20834C10.1823 2.20834 10.3571 2.13591 10.4861 2.00698C10.615 1.87805 10.6874 1.70318 10.6874 1.52084C10.6874 1.33851 10.615 1.16364 10.4861 1.03471C10.3571 0.905776 10.1823 0.833344 9.99992 0.833344ZM12.5225 1.21111C12.3561 1.2081 12.1942 1.26559 12.0669 1.37292C11.9396 1.48024 11.8556 1.63011 11.8304 1.7947C11.8053 1.95928 11.8407 2.1274 11.9301 2.26784C12.0195 2.40829 12.1569 2.51152 12.3166 2.55836C14.7552 3.31679 16.6831 5.2447 17.4416 7.68328C17.4684 7.76951 17.5119 7.84962 17.5696 7.91903C17.6274 7.98844 17.6983 8.0458 17.7782 8.08782C17.8581 8.12985 17.9456 8.15572 18.0355 8.16395C18.1254 8.17219 18.2161 8.16263 18.3023 8.13583C18.3885 8.10903 18.4686 8.0655 18.538 8.00774C18.6075 7.94997 18.6648 7.8791 18.7068 7.79917C18.7488 7.71924 18.7747 7.63182 18.7829 7.5419C18.7912 7.45197 18.7816 7.3613 18.7548 7.27507C17.8614 4.40249 15.5974 2.13853 12.7249 1.24513C12.6595 1.22373 12.5913 1.21227 12.5225 1.21111ZM7.45671 1.21201C7.39492 1.21482 7.33379 1.22596 7.27498 1.24513C4.4024 2.13854 2.13844 4.40249 1.24504 7.27507C1.21822 7.36131 1.20865 7.45198 1.21688 7.54191C1.22511 7.63184 1.25097 7.71926 1.29299 7.7992C1.33501 7.87913 1.39236 7.95 1.46177 8.00777C1.53118 8.06554 1.61129 8.10907 1.69753 8.13587C1.78376 8.16268 1.87443 8.17223 1.96436 8.164C2.05429 8.15576 2.14171 8.12989 2.22164 8.08786C2.30157 8.04583 2.37244 7.98847 2.4302 7.91905C2.48795 7.84963 2.53147 7.76952 2.55827 7.68328C3.31669 5.2447 5.24461 3.31679 7.68319 2.55836C7.84445 2.51085 7.98272 2.4059 8.07185 2.26335C8.16098 2.12081 8.1948 1.95055 8.16691 1.78476C8.13902 1.61898 8.05136 1.46915 7.92049 1.36361C7.78963 1.25808 7.62464 1.20414 7.45671 1.21201ZM1.52075 9.31251C1.33842 9.31251 1.16355 9.38494 1.03462 9.51387C0.905685 9.64281 0.833252 9.81767 0.833252 10C0.833252 10.1823 0.905685 10.3572 1.03462 10.4861C1.16355 10.6151 1.33842 10.6875 1.52075 10.6875C1.70309 10.6875 1.87796 10.6151 2.00689 10.4861C2.13582 10.3572 2.20825 10.1823 2.20825 10C2.20825 9.81767 2.13582 9.64281 2.00689 9.51387C1.87796 9.38494 1.70309 9.31251 1.52075 9.31251ZM18.4791 9.31251C18.2967 9.31251 18.1219 9.38494 17.9929 9.51387C17.864 9.64281 17.7916 9.81767 17.7916 10C17.7916 10.1823 17.864 10.3572 17.9929 10.4861C18.1219 10.6151 18.2967 10.6875 18.4791 10.6875C18.6614 10.6875 18.8363 10.6151 18.9652 10.4861C19.0942 10.3572 19.1666 10.1823 19.1666 10C19.1666 9.81767 19.0942 9.64281 18.9652 9.51387C18.8363 9.38494 18.6614 9.31251 18.4791 9.31251ZM1.88778 11.8244C1.78016 11.8261 1.67445 11.8531 1.57915 11.9031C1.48386 11.9531 1.40164 12.0248 1.33911 12.1124C1.27658 12.2 1.2355 12.3011 1.21916 12.4075C1.20282 12.5139 1.21168 12.6226 1.24504 12.7249C2.13844 15.5975 4.4024 17.8615 7.27498 18.7549C7.36121 18.7817 7.45188 18.7913 7.5418 18.783C7.63173 18.7748 7.71915 18.7489 7.79908 18.7069C7.87901 18.6649 7.94988 18.6075 8.00764 18.5381C8.06541 18.4687 8.10893 18.3886 8.13574 18.3024C8.16254 18.2162 8.1721 18.1255 8.16386 18.0356C8.15563 17.9456 8.12976 17.8582 8.08773 17.7783C8.04571 17.6984 7.98835 17.6275 7.91894 17.5697C7.84953 17.512 7.76942 17.4685 7.68319 17.4417C5.24461 16.6832 3.31669 14.7553 2.55827 12.3167C2.51564 12.1727 2.42701 12.0466 2.30592 11.9577C2.18484 11.8688 2.03798 11.8219 1.88778 11.8244ZM18.0915 11.8244C17.9448 11.8264 17.8026 11.8753 17.6857 11.9638C17.5687 12.0524 17.4832 12.1761 17.4416 12.3167C16.6831 14.7553 14.7552 16.6832 12.3166 17.4417C12.2304 17.4685 12.1503 17.512 12.0809 17.5697C12.0115 17.6275 11.9541 17.6984 11.9121 17.7783C11.8701 17.8582 11.8442 17.9456 11.836 18.0356C11.8277 18.1255 11.8373 18.2162 11.8641 18.3024C11.8909 18.3886 11.9344 18.4687 11.9922 18.5381C12.05 18.6075 12.1208 18.6649 12.2008 18.7069C12.2807 18.7489 12.3681 18.7748 12.458 18.783C12.548 18.7913 12.6386 18.7817 12.7249 18.7549C15.5974 17.8615 17.8614 15.5975 18.7548 12.7249C18.7887 12.621 18.7973 12.5104 18.7799 12.4024C18.7625 12.2944 18.7195 12.1922 18.6547 12.1041C18.5898 12.0161 18.5049 11.9447 18.4069 11.8961C18.309 11.8474 18.2008 11.8229 18.0915 11.8244ZM9.99992 17.7917C9.81758 17.7917 9.64271 17.8641 9.51378 17.993C9.38485 18.122 9.31242 18.2968 9.31242 18.4792C9.31242 18.6615 9.38485 18.8364 9.51378 18.9653C9.64271 19.0942 9.81758 19.1667 9.99992 19.1667C10.1823 19.1667 10.3571 19.0942 10.4861 18.9653C10.615 18.8364 10.6874 18.6615 10.6874 18.4792C10.6874 18.2968 10.615 18.122 10.4861 17.993C10.3571 17.8641 10.1823 17.7917 9.99992 17.7917Z" fill="#BCCCF4"/>
</svg>
