<svg width="6" height="14" viewBox="0 0 6 14" fill="none" xmlns="http://www.w3.org/2000/svg">
<path d="M0.692237 6.99727C0.691022 8.03677 1.12137 9.434 1.5321 10.6855C1.94284 11.937 2.35391 12.9808 2.35391 12.9808C2.40482 13.1097 2.49351 13.2203 2.60835 13.2979C2.72319 13.3755 2.85881 13.4166 2.99742 13.4158C3.13603 13.415 3.27115 13.3723 3.38509 13.2934C3.499 13.2144 3.58641 13.1029 3.63581 12.9733C3.63581 12.9733 4.04764 11.8935 4.46031 10.6253C4.873 9.35719 5.30665 7.9865 5.30779 7.00264C5.30893 6.01876 4.87847 4.64707 4.46873 3.37793C4.059 2.10883 3.64969 1.02804 3.64969 1.02804C3.60057 0.898464 3.51345 0.786737 3.39969 0.707471C3.28596 0.628305 3.15092 0.585209 3.0123 0.584107C2.8737 0.583005 2.73798 0.623707 2.62296 0.70104C2.50797 0.778573 2.41901 0.888743 2.3678 1.01767C2.3678 1.01767 1.95432 2.06047 1.54068 3.31107C1.12704 4.56154 0.693441 5.95777 0.692237 6.99727ZM2.06723 6.99888L3.93278 7.00103C3.93223 7.47558 3.55351 8.96864 3.15295 10.1995C3.07013 10.454 3.06612 10.4403 2.9868 10.672C2.91525 10.4653 2.91277 10.4831 2.83867 10.2573C2.44193 9.04848 2.06656 7.58004 2.06723 6.99888Z" fill="#F9F9F9"/>
</svg>
