<svg width="14" height="6" viewBox="0 0 14 6" fill="none" xmlns="http://www.w3.org/2000/svg">
<path d="M7.5973 0.770874C6.59322 0.501831 5.13228 0.557579 3.8172 0.631935C2.50212 0.706291 1.38764 0.834483 1.38764 0.834483C1.24995 0.850454 1.1203 0.907669 1.0157 0.998622C0.911102 1.08958 0.836435 1.21002 0.801495 1.34416C0.766555 1.4783 0.772973 1.61986 0.819909 1.75029C0.866844 1.88071 0.952104 1.99391 1.06451 2.07502C1.06451 2.07502 2.00175 2.7512 3.12073 3.47675C4.23972 4.2023 5.45236 4.97452 6.4027 5.22916C7.35305 5.48381 8.78934 5.42137 10.1212 5.35252C11.453 5.28366 12.6028 5.1667 12.6028 5.1667C12.7407 5.15265 12.8711 5.09725 12.977 5.00777C13.0828 4.91828 13.1592 4.79889 13.196 4.66525C13.2328 4.53162 13.2284 4.38998 13.1833 4.25891C13.1381 4.12784 13.0545 4.01347 12.9432 3.93079C12.9432 3.93079 12.0421 3.26253 10.9404 2.5406C9.83872 1.81867 8.60138 1.03992 7.5973 0.770874ZM7.24142 2.09902L6.75858 3.90101C6.3002 3.77819 4.95517 3.02749 3.86909 2.32328C3.64451 2.17766 3.65877 2.17732 3.4554 2.04098C3.67355 2.02511 3.657 2.01813 3.89421 2.00471C5.16448 1.93289 6.68006 1.94861 7.24142 2.09902Z" fill="#F9F9F9"/>
</svg>
